<svg  viewBox="0 0 58 87" fill="none" xmlns="http://www.w3.org/2000/svg">
<path d="M13.0181 36.8389C13.0181 45.599 20.0958 52.6768 28.8559 52.6768C37.616 52.6768 44.6937 45.599 44.6937 36.8389C44.6937 28.0788 37.616 21.0011 28.8559 21.0011C20.0958 21.0011 13.0181 28.0788 13.0181 36.8389Z" fill="#7CC9EB"/>
<path d="M22.5325 6.32353C22.5325 9.80438 25.3752 12.6471 28.856 12.6471C32.3368 12.6471 35.1795 9.86239 35.1795 6.32353C35.1795 2.84269 32.3368 0 28.856 0C25.3752 0 22.5325 2.84269 22.5325 6.32353Z" fill="white"/>
<path d="M7.68091 24.0758C7.68091 35.7947 17.1952 45.251 28.856 45.251C40.5749 45.251 50.0312 35.7367 50.0312 24.0758C50.0312 12.357 40.5169 2.9007 28.856 2.9007C17.1372 2.9007 7.68091 12.357 7.68091 24.0758Z" fill="#7CC9EB"/>
<path d="M42.0833 7.94792C50.0312 7.94792 56.4128 14.3875 56.4128 22.2774V35.3886C56.4128 43.3365 49.9732 49.718 42.0833 49.718H15.6869C7.73897 49.718 1.35742 43.2785 1.35742 35.3886V22.2774C1.35742 14.3295 7.79698 7.94792 15.6869 7.94792H42.0833Z" fill="white"/>
<path d="M40.4588 39.9137H17.4272C16.731 39.9137 16.1509 39.3335 16.1509 38.6374C16.1509 37.9412 16.731 37.3611 17.4272 37.3611H40.5168C41.213 37.3611 41.7931 37.9412 41.7931 38.6374C41.7931 39.3335 41.213 39.9137 40.4588 39.9137Z" fill="#141893"/>
<path d="M50.3214 27.0345C50.3214 30.9215 47.1886 33.9962 43.3597 33.9962H14.4107C10.5237 33.9962 7.44897 30.8635 7.44897 27.0345V22.9155C7.44897 19.0286 10.5817 15.9539 14.4107 15.9539H43.3017C47.1886 15.9539 50.2634 19.0866 50.2634 22.9155V27.0345H50.3214Z" fill="#141893"/>
<path d="M12.3799 26.1063C12.3799 28.3109 14.1783 30.0513 16.3248 30.0513C18.5294 30.0513 20.2698 28.2528 20.2698 26.1063C20.2698 23.9018 18.4714 22.1614 16.3248 22.1614C14.1783 22.1614 12.3799 23.9018 12.3799 26.1063Z" fill="#7CC9EB"/>
<path d="M37.2681 26.1063C37.2681 28.3109 39.0665 30.0513 41.213 30.0513C43.4175 30.0513 45.158 28.2528 45.158 26.1063C45.158 23.9018 43.3595 22.1614 41.213 22.1614C39.0085 22.1614 37.2681 23.9018 37.2681 26.1063Z" fill="#7CC9EB"/>
<path d="M14.1786 44.0327C14.1786 44.5548 13.7725 44.9029 13.3084 44.9029H12.7862C12.2641 44.9029 11.916 44.4968 11.916 44.0327C11.916 43.5105 12.3221 43.1624 12.7862 43.1624H13.3084C13.7725 43.1624 14.1786 43.5105 14.1786 44.0327Z" fill="#B935B3"/>
<path d="M17.5433 44.0327C17.5433 44.5548 17.1372 44.9029 16.6731 44.9029H16.151C15.6288 44.9029 15.2808 44.4968 15.2808 44.0327C15.2808 43.5105 15.6869 43.1624 16.151 43.1624H16.6151C17.1372 43.1624 17.5433 43.5105 17.5433 44.0327Z" fill="#B935B3"/>
<path d="M20.6762 19.8408C20.6762 20.479 20.1541 20.9431 19.5739 20.9431H13.3664C12.7283 20.9431 12.2642 20.4209 12.2642 19.8408C12.2642 19.2026 12.7863 18.7385 13.3664 18.7385H19.6319C20.2121 18.7385 20.6762 19.2607 20.6762 19.8408Z" fill="#7CC9EB"/>
<path d="M45.4481 19.8408C45.4481 20.479 44.926 20.9431 44.3458 20.9431H38.0803C37.4421 20.9431 36.978 20.4209 36.978 19.8408C36.978 19.2026 37.5002 18.7385 38.0803 18.7385H44.3458C44.926 18.7385 45.4481 19.2607 45.4481 19.8408Z" fill="#7CC9EB"/>
<path d="M35.2957 61.3789C35.2957 64.8597 38.1383 67.7024 41.6192 67.7024C45.1 67.7024 47.9427 64.8597 47.9427 61.3789C47.9427 57.898 45.1 55.0553 41.6192 55.0553C38.1383 55.0553 35.2957 57.898 35.2957 61.3789Z" fill="#7CC9EB"/>
<path d="M10.1755 61.3789C10.1755 64.8597 13.0182 67.7024 16.4991 67.7024C19.9799 67.7024 22.8226 64.8597 22.8226 61.3789C22.8226 57.898 19.9799 55.0553 16.4991 55.0553C12.9602 55.0553 10.1755 57.898 10.1755 61.3789Z" fill="#7CC9EB"/>
<path d="M42.7794 76.6366C42.7794 82.0319 38.3703 86.4409 32.975 86.4409H24.9111C19.5158 86.4409 15.1067 82.0319 15.1067 76.6366V63.6994C15.1067 58.3041 19.5158 53.8951 24.9111 53.8951H32.975C38.3703 53.8951 42.7794 58.3041 42.7794 63.6994V76.6366Z" fill="white"/>
<path d="M35.5857 76.8106V86.0929C39.7047 84.9326 42.7214 81.1617 42.7214 76.6946V67.4123C38.6604 68.5146 35.5857 72.2855 35.5857 76.8106Z" fill="#E4F4FF"/>
<path d="M15.1648 67.3543V76.6946C15.1648 81.2197 18.2395 85.0486 22.4746 86.1509V76.8106C22.4746 72.2275 19.3418 68.4566 15.1648 67.3543Z" fill="#E4F4FF"/>
<path d="M22.9966 64.1635C22.9966 67.4703 25.6652 70.081 28.914 70.081C32.2208 70.081 34.8314 67.4123 34.8314 64.1635C34.8314 60.8567 32.1628 58.2461 28.914 58.2461C25.6652 58.2461 22.9966 60.9147 22.9966 64.1635Z" fill="#C7DFE6"/>
<path d="M23.8088 64.1635C23.8088 67.0062 26.1294 69.2688 28.9141 69.2688C31.7568 69.2688 34.0193 66.9482 34.0193 64.1635C34.0193 61.3208 31.6987 59.0583 28.9141 59.0583C26.1294 59.0583 23.8088 61.3789 23.8088 64.1635Z" fill="#DBF1FF"/>
<path d="M25.4331 64.1636C25.4331 66.078 26.9995 67.6444 28.9139 67.6444C30.8284 67.6444 32.3948 66.078 32.3948 64.1636C32.3948 62.2491 30.8284 60.6827 28.9139 60.6827C26.9995 60.6827 25.4331 62.2491 25.4331 64.1636Z" fill="#7CC9EB"/>
<path d="M27.5217 64.1635C27.5217 64.9757 28.1599 65.6139 28.9721 65.6139C29.7843 65.6139 30.4224 64.9757 30.4224 64.1635C30.4224 63.3514 29.7843 62.7132 28.9721 62.7132C28.1599 62.7712 27.5217 63.4094 27.5217 64.1635Z" fill="#B935B3"/>
<path d="M-6.66844e-05 74.7902C-6.67058e-05 76.5887 0.23199 78.2131 0.580074 79.5474C0.81213 80.5336 1.79837 81.1138 2.78461 80.8237C3.77085 80.5916 4.35099 79.6054 4.06092 78.6192C3.94489 78.097 1.1022 66.4362 11.8348 63.5355C12.821 63.2454 13.3432 62.2592 13.1111 61.331C12.821 60.3447 11.8348 59.8226 10.9066 60.0547C2.26248 62.3752 -6.66179e-05 69.2209 -6.66844e-05 74.7902Z" fill="white"/>
<path d="M57.4641 76.0726C57.4826 70.5033 55.1848 63.6499 46.6067 61.2428C45.6215 60.9494 44.6333 61.5263 44.398 62.5117C44.1046 63.497 44.6815 64.4851 45.6669 64.7205C56.4478 67.6571 53.5081 79.3662 53.3905 79.8299C53.1552 80.8154 53.7321 81.8036 54.6595 82.0387C55.645 82.2741 56.6331 81.6972 56.8683 80.7698C57.2204 79.5526 57.4581 77.871 57.4641 76.0726Z" fill="white"/>
</svg>
