<svg viewBox="0 0 68 87" fill="none" xmlns="http://www.w3.org/2000/svg">
<path d="M21.1051 32.5672C18.9904 41.2024 24.2773 49.8964 32.9124 52.0111C41.5476 54.1258 50.2416 48.839 52.3563 40.2038C54.4711 31.5686 49.1842 22.8747 40.549 20.7599C31.9138 18.7039 23.1611 23.932 21.1051 32.5672Z" fill="#7CC9EB"/>
<path d="M37.7877 4.89937C36.9653 8.3652 39.0213 11.831 42.4871 12.6534C45.9529 13.4758 49.4188 11.4198 50.2412 7.95399C51.0636 4.48816 48.9488 1.02235 45.5417 0.199946C42.1347 -0.681197 38.6101 1.43355 37.7877 4.89937Z" fill="white"/>
<path d="M18.9313 18.7627C16.1116 30.2763 23.1608 41.9073 34.6744 44.727C46.1879 47.5467 57.819 40.4975 60.6387 28.9839C63.4583 17.4703 56.4092 5.83925 44.8956 3.01959C33.3233 0.199936 21.7509 7.24909 18.9313 18.7627Z" fill="#7CC9EB"/>
<path d="M56.6441 11.1849C64.4569 13.1234 69.2151 20.9362 67.2766 28.749L64.1045 41.6724C62.166 49.4852 54.3532 54.2433 46.5404 52.3048L20.5761 45.9606C12.7633 44.0221 8.00509 36.2093 9.9436 28.3965L13.1157 15.4731C15.0542 7.66029 22.867 2.90212 30.6798 4.84063L56.6441 11.1849Z" fill="white"/>
<path d="M49.478 42.436C40.1379 43.0235 31.3265 40.9087 23.9249 36.8555C23.22 36.503 22.985 35.6806 23.3962 35.0344C23.7486 34.447 24.571 34.212 25.2172 34.5645C32.2076 38.324 40.5491 40.3213 49.478 39.7339C50.3004 39.6751 51.0053 40.2038 51.0053 40.9087C51.0641 41.6724 50.3591 42.3773 49.478 42.436Z" fill="#141893"/>
<path d="M60.1102 31.9211C59.1703 35.7394 55.352 38.0303 51.5337 37.0904L23.1022 30.1001C19.2839 29.1602 16.9929 25.3419 17.9328 21.5236L18.9314 17.4703C19.8713 13.6521 23.6896 11.3611 27.5079 12.301L55.9394 19.2914C59.7577 20.2313 62.0487 24.0495 61.1088 27.8678L60.1102 31.9211Z" fill="#141893"/>
<path d="M54.3536 33.3896C54.471 33.1547 54.5298 32.9197 54.5885 32.6847C55.2347 29.9825 53.5899 27.2804 50.8877 26.6342C48.1856 25.988 45.4834 27.6328 44.8372 30.335C44.7785 30.57 44.7197 30.805 44.7197 31.0987L54.3536 33.3896Z" fill="#7CC9EB"/>
<path d="M33.3821 28.2203C33.4996 27.9853 33.5583 27.7503 33.6171 27.5153C34.2633 24.8132 32.6185 22.111 29.9163 21.4648C27.2141 20.8187 24.512 22.4635 23.8658 25.1656C23.807 25.4006 23.7483 25.6356 23.7483 25.9293L33.3821 28.2203Z" fill="#7CC9EB"/>
<path d="M20.5176 39.9688C20.4001 40.4388 19.9301 40.7325 19.4014 40.615L18.8728 40.4975C18.4028 40.38 18.1091 39.9101 18.2266 39.3814C18.3441 38.9115 18.814 38.6178 19.3427 38.7352L19.8714 38.8527C20.3413 38.9702 20.635 39.4401 20.5176 39.9688Z" fill="#BB20A2"/>
<path d="M23.8071 40.7325C23.6896 41.2024 23.2197 41.4962 22.691 41.3787L22.1623 41.2612C21.6924 41.1437 21.3987 40.6738 21.5161 40.1451C21.6336 39.6751 22.1036 39.3814 22.6323 39.4989L23.1609 39.6164C23.6309 39.7926 23.9246 40.2626 23.8071 40.7325Z" fill="#BB20A2"/>
<path d="M32.7361 17.764C32.5598 18.3515 31.9724 18.7039 31.385 18.5864L25.217 17.0591C24.6295 16.8829 24.2771 16.2955 24.3946 15.708C24.5708 15.1206 25.1582 14.7682 25.7457 14.8856L31.9137 16.413C32.5011 16.5304 32.8535 17.1179 32.7361 17.764Z" fill="#7CC9EB"/>
<path d="M57.0554 23.6971C56.8792 24.2845 56.2917 24.6369 55.7043 24.5195L49.5363 22.9921C48.9489 22.8159 48.5964 22.2285 48.7139 21.6411C48.8901 21.0536 49.4776 20.7012 50.065 20.8187L56.233 22.346C56.8204 22.5222 57.2316 23.1096 57.0554 23.6971Z" fill="#7CC9EB"/>
<path d="M37.0831 62.0561C36.2607 65.4632 38.3167 68.929 41.7825 69.7514C45.1896 70.5738 48.6554 68.5178 49.4778 65.052C50.3002 61.6449 48.2442 58.1791 44.7784 57.3567C41.4301 56.5343 37.9642 58.649 37.0831 62.0561Z" fill="#7CC9EB"/>
<path d="M12.3521 56.0056C11.5297 59.4127 13.5857 62.8785 17.0516 63.7009C20.4587 64.5233 23.9245 62.4673 24.7469 59.0015C25.5693 55.5944 23.5133 52.1286 20.0475 51.3062C16.6404 50.4838 13.2333 52.5985 12.3521 56.0056Z" fill="#7CC9EB"/>
<path d="M40.725 78.9153C39.4326 84.2609 34.0283 87.4918 28.7415 86.1994L20.8112 84.2609C15.4656 82.9686 12.2347 77.5642 13.5271 72.2774L16.6404 59.5302C17.9328 54.1846 23.3371 50.9538 28.624 52.2461L36.5542 54.1846C41.8998 55.477 45.1307 60.8813 43.8384 66.1681L40.725 78.9153Z" fill="white"/>
<path d="M33.6758 77.3293L31.4436 86.4344C35.7906 86.3169 39.6676 83.321 40.725 78.9153L42.9572 69.8102C38.669 69.9277 34.7919 72.9236 33.6758 77.3293Z" fill="#E4F4FF"/>
<path d="M15.818 63.1135L13.5858 72.2774C12.4697 76.7418 14.6432 81.265 18.4615 83.321L20.6937 74.1572C21.8098 69.6927 19.6951 65.1695 15.818 63.1135Z" fill="#E4F4FF"/>
<path d="M24.3358 61.8799C23.5721 65.1108 25.5106 68.3416 28.7415 69.164C31.9723 69.9277 35.2032 67.9892 36.0256 64.7583C36.7892 61.5275 34.8507 58.2966 31.6199 57.4742C28.389 56.7106 25.0994 58.6491 24.3358 61.8799Z" fill="#C7DFE6"/>
<path d="M25.1583 62.1149C24.4534 64.8758 26.1569 67.6955 28.9766 68.4004C31.7375 69.1053 34.5572 67.4018 35.2621 64.5821C35.967 61.8212 34.2635 59.0015 31.4438 58.2966C28.6241 57.5917 25.8045 59.2952 25.1583 62.1149Z" fill="#DBF1FF"/>
<path d="M26.744 62.4674C26.2741 64.3471 27.4489 66.2856 29.3287 66.7556C31.2085 67.2255 33.147 66.0507 33.6169 64.1709C34.0869 62.2911 32.912 60.3526 31.0322 59.8827C29.0937 59.4127 27.2139 60.5876 26.744 62.4674Z" fill="#7CC9EB"/>
<path d="M28.7413 62.996C28.5651 63.7597 29.0351 64.5821 29.7987 64.7583C30.5624 64.9346 31.3848 64.4646 31.561 63.701C31.7372 62.9373 31.2673 62.1149 30.5036 61.9387C29.74 61.7037 28.9176 62.1736 28.7413 62.996Z" fill="#BB20A2"/>
<path d="M1.24989 73.0998C0.427495 72.9236 -0.10119 72.1012 0.016296 71.22C2.13104 57.8854 11.9411 56.4756 12.411 56.4168C13.2922 56.2993 14.1146 56.9455 14.2321 57.8267C14.3495 58.7078 13.7034 59.5302 12.8222 59.6477C12.4698 59.7064 5.00944 60.94 3.24715 71.69C3.12967 72.5711 2.24852 73.2173 1.36738 73.0411C1.36738 73.1585 1.30864 73.1585 1.24989 73.0998Z" fill="white"/>
<path d="M60.8151 75.7432C61.5788 75.3908 61.99 74.5096 61.6962 73.6872C57.173 60.9988 47.3042 61.3512 46.893 61.3512C46.0119 61.41 45.307 62.1736 45.3657 63.0548C45.4245 63.9359 46.1881 64.6408 47.0693 64.5821C47.4217 64.5821 54.9996 64.4059 58.6416 74.7446C58.9353 75.6257 59.8752 76.0369 60.7563 75.7432C60.6976 75.7432 60.7564 75.7432 60.8151 75.7432Z" fill="white"/>
</svg>
