<svg viewBox="0 0 88 87" fill="none" xmlns="http://www.w3.org/2000/svg">
<path d="M25.416 34.1424C24.3896 42.6959 30.5481 50.4511 39.1016 51.4775C47.6551 52.5039 55.4102 46.3454 56.4366 37.7919C57.4631 29.2384 51.3046 21.4833 42.7511 20.4569C34.1976 19.4875 26.4425 25.589 25.416 34.1424Z" fill="#7CC9EB"/>
<path d="M38.2463 5.51682C37.8471 8.9382 40.2991 12.0175 43.7205 12.4166C47.1419 12.8158 50.2211 10.3638 50.6203 6.94239C51.0194 3.521 48.5674 0.441751 45.146 0.0425885C41.7247 -0.356574 38.6454 2.09543 38.2463 5.51682Z" fill="white"/>
<path d="M21.7095 21.0841C20.341 32.4888 28.5523 42.867 39.9569 44.2355C51.3616 45.6041 61.7398 37.3928 63.1083 25.9881C64.4769 14.5835 56.2656 4.20529 44.8609 2.83673C33.3993 1.5252 23.0211 9.67951 21.7095 21.0841Z" fill="#7CC9EB"/>
<path d="M57.1781 9.28035C64.9332 10.1927 70.4645 17.2066 69.5521 24.9617L68.0125 37.7919C67.1001 45.5471 60.0863 51.0783 52.3311 50.166L26.5566 47.1437C18.8015 46.2314 13.2702 39.2175 14.1826 31.4624L15.7222 18.6322C16.6346 10.877 23.6485 5.34575 31.4036 6.25812L57.1781 9.28035Z" fill="white"/>
<path d="M62.9943 28.8963C62.5381 32.6598 59.1167 35.3399 55.3532 34.9408L27.1267 31.6334C23.3632 31.1772 20.6831 27.7558 21.0823 23.9923L21.5385 20.0007C21.9946 16.2372 25.416 13.5571 29.1796 13.9562L57.406 17.2636C61.1695 17.7198 63.8496 21.1412 63.4505 24.9047L62.9943 28.8963Z" fill="#141893"/>
<path d="M37.277 45.376C37.277 45.8892 36.8778 46.2313 36.4216 46.2313H35.9084C35.3952 46.2313 34.996 45.8322 34.996 45.376C34.996 44.8628 35.3952 44.5206 35.9084 44.5206H36.4216C36.8778 44.5206 37.277 44.9198 37.277 45.376Z" fill="#BB20A2"/>
<path d="M40.5273 45.376C40.5273 45.8892 40.1282 46.2313 39.672 46.2313H39.1588C38.6455 46.2313 38.3034 45.8322 38.3034 45.376C38.3034 44.8628 38.7026 44.5206 39.1588 44.5206H39.672C40.1282 44.5206 40.5273 44.9198 40.5273 45.376Z" fill="#BB20A2"/>
<path d="M50.9625 59.6888C52.046 62.9391 55.5814 64.6498 58.8317 63.5664C62.082 62.4829 63.7927 58.9475 62.7093 55.6972C61.6258 52.4469 58.0904 50.7362 54.8401 51.8196C51.5898 52.9601 49.8791 56.4385 50.9625 59.6888Z" fill="#7CC9EB"/>
<path d="M27.526 67.615C28.6094 70.8653 32.1449 72.576 35.3952 71.4926C38.6455 70.4092 40.3562 66.8737 39.2728 63.6234C38.1893 60.3731 34.6539 58.6624 31.4036 59.7458C28.1533 60.8293 26.4425 64.3647 27.526 67.615Z" fill="#7CC9EB"/>
<path d="M62.7091 71.6066C64.4198 76.6247 61.6827 82.0989 56.6646 83.8096L49.1946 86.3186C44.1766 88.0293 38.7023 85.2922 36.9916 80.2741L32.943 68.2423C31.2323 63.2242 33.9694 57.75 38.9875 56.0393L46.4575 53.5303C51.4755 51.8196 56.9498 54.5567 58.6605 59.5747L62.7091 71.6066Z" fill="white"/>
<path d="M56.0946 73.9446L59.0028 82.6121C62.4812 80.2171 64.1349 75.7693 62.7093 71.6066L59.8011 62.9391C56.3227 65.3341 54.669 69.7819 56.0946 73.9446Z" fill="#E4F4FF"/>
<path d="M34.0267 71.6066L36.9349 80.2742C38.3604 84.4939 42.4661 87.0599 46.6858 86.7748L43.7776 78.1073C42.4091 73.8876 38.3034 71.3215 34.0267 71.6066Z" fill="#E4F4FF"/>
<path d="M40.3561 66.1894C41.3825 69.2687 44.6898 70.8653 47.7691 69.8389C50.8483 68.8125 52.445 65.5052 51.4186 62.4259C50.3921 59.3467 47.0848 57.75 44.0056 58.7764C40.9833 59.8028 39.3297 63.1672 40.3561 66.1894Z" fill="#C7DFE6"/>
<path d="M41.1545 65.9613C42.0669 68.5844 44.9181 70.01 47.5411 69.0976C50.1642 68.1853 51.5898 65.3341 50.6774 62.711C49.765 60.088 46.9139 58.6624 44.2908 59.5748C41.6677 60.4301 40.2422 63.2813 41.1545 65.9613Z" fill="#DBF1FF"/>
<path d="M42.637 65.4481C43.2642 67.2729 45.203 68.2423 47.0278 67.615C48.8525 66.9878 49.8219 65.049 49.1946 63.2242C48.5674 61.3995 46.6286 60.4301 44.8039 61.0574C43.0361 61.6846 42.0667 63.6234 42.637 65.4481Z" fill="#7CC9EB"/>
<path d="M44.5187 64.3077C44.5187 65.106 45.146 65.7333 45.9443 65.7333C46.7426 65.7333 47.3699 65.106 47.3699 64.3077C47.3699 63.5094 46.7426 62.8821 45.9443 62.8821C45.146 62.8821 44.5187 63.5664 44.5187 64.3077Z" fill="#BB20A2"/>
<path d="M60.9205 56.6399C60.2407 56.9354 59.4313 56.7898 58.8516 56.1713C58.2264 55.4482 58.2879 54.3023 59.011 53.6771C67.7244 45.9725 75.3895 39.7184 75.4941 39.673C76.2695 39.025 77.3859 39.1616 77.9815 39.9597C78.6294 40.7351 78.4929 41.8514 77.6948 42.4471C77.5902 42.4925 69.9773 48.7239 61.3685 56.383C61.2639 56.4285 61.1297 56.5489 60.9205 56.6399Z" fill="white"/>
<path d="M79.4394 45.066C78.1818 46.6934 75.8465 46.9716 74.2192 45.714L71.8554 43.8923C70.228 42.6347 69.9498 40.2994 71.2074 38.6721L73.0291 36.3083C74.2867 34.6809 76.622 34.4027 78.2493 35.6603L80.6131 37.482C82.2405 38.7396 82.5187 41.0749 81.2611 42.7022L79.4394 45.066Z" fill="#7CC9EB"/>
<path d="M72.7158 44.4026C72.5379 44.3325 72.4014 44.2445 72.2469 44.1151C67.5104 39.8861 68.8653 35.3181 70.2163 33.4537C70.6745 32.8124 71.6086 32.7011 72.2498 33.1593C72.8911 33.6174 73.0437 34.5335 72.5442 35.1927C72.3035 35.543 70.3254 38.5642 74.1405 41.9166C74.7584 42.434 74.8104 43.3447 74.2517 43.9806C73.9229 44.4673 73.2492 44.6128 72.7158 44.4026Z" fill="#7CC9EB"/>
<path d="M76.9523 36.5188C76.4888 37.2607 75.508 37.4905 74.7662 37.027C74.0243 36.5634 73.7945 35.5826 74.258 34.8408L76.6224 31.013C77.0859 30.2712 78.0667 30.0414 78.8086 30.5049C79.5504 30.9684 79.7802 31.9492 79.3167 32.6911L76.9523 36.5188Z" fill="#7CC9EB"/>
<path d="M80.1297 38.9693C79.5117 39.5818 79.5403 40.5519 80.1528 41.1699C80.7653 41.7879 81.7533 41.8005 82.3533 41.1467L85.5313 37.9478C86.1493 37.3353 86.162 36.3473 85.5082 35.7473C84.8957 35.1293 83.9077 35.1166 83.3077 35.7704L80.1297 38.9693Z" fill="#7CC9EB"/>
<path d="M79.837 38.4089C79.2963 39.086 78.3208 39.2153 77.6437 38.6745C76.9665 38.1338 76.8373 37.1583 77.378 36.4812L80.1699 32.9588C80.7107 32.2817 81.6861 32.1524 82.3632 32.6932C83.0404 33.234 83.1696 34.2094 82.6289 34.8866L79.837 38.4089Z" fill="#7CC9EB"/>
<path d="M28.4378 65.1806C28.2798 65.115 28.1437 64.9967 27.9549 64.8566C19.2205 57.3409 11.4311 51.2672 11.4003 51.1926C10.6143 50.5576 10.512 49.4656 11.0725 48.7104C11.7075 47.9244 12.7996 47.8221 13.5548 48.3825C13.6601 48.4263 21.4277 54.5527 30.2674 62.1121C31.0007 62.7252 31.0811 63.87 30.468 64.6033C29.9512 65.2532 29.1225 65.4648 28.4378 65.1806Z" fill="white"/>
<path d="M30.149 33.2871C30.4912 33.2871 30.8333 33.4011 31.0614 33.6863C37.6761 40.9852 46.9709 40.0158 47.0279 39.9588C47.7122 39.9018 48.3394 40.358 48.4535 41.0993C48.5105 41.7835 48.0543 42.4108 47.313 42.5248C46.8568 42.5819 36.6497 43.6653 29.1226 35.3969C28.6664 34.8837 28.6664 34.0854 29.1796 33.5722C29.5218 33.4011 29.8069 33.2871 30.149 33.2871Z" fill="#141893"/>
<path d="M59.1736 24.7336C59.4017 22.7378 57.9191 20.9131 55.9233 20.685C54.6688 20.5709 53.4713 21.0841 52.73 21.9395C52.1598 20.9131 51.1334 20.1147 49.8789 20.0007C47.883 19.7726 46.0583 21.2552 45.8302 23.251C45.6591 24.5626 46.2864 25.8171 47.2558 26.5584L51.8176 30.0368L57.1208 27.6418C58.2042 27.1286 59.0026 26.0452 59.1736 24.7336Z" fill="#FF4646"/>
<path d="M39.4438 23.137C39.6719 21.1412 38.1893 19.3164 36.1935 19.0883C34.939 18.9743 33.7415 19.4875 33.0002 20.3428C32.43 19.3164 31.4036 18.5181 30.1491 18.4041C28.1532 18.176 26.3285 19.6586 26.1004 21.6544C25.9293 22.9659 26.5566 24.2204 27.526 24.9617L32.0878 28.4401L37.391 26.0452C38.4174 25.589 39.2728 24.5055 39.4438 23.137Z" fill="#FF4646"/>
<path d="M7.8151 52.0661C9.0727 53.6934 11.4079 53.9716 13.0353 52.714L15.3991 50.8923C17.0265 49.6347 17.3046 47.2995 16.0471 45.6721L14.2253 43.3083C12.9678 41.6809 10.6325 41.4027 9.00513 42.6603L6.64135 44.4821C5.01399 45.7397 4.73579 48.0749 5.99338 49.7023L7.8151 52.0661Z" fill="#7CC9EB"/>
<path d="M14.5387 51.4026C14.7165 51.3325 14.853 51.2445 15.0075 51.1151C19.744 46.8861 18.3891 42.3181 17.0381 40.4537C16.58 39.8124 15.6459 39.7012 15.0046 40.1593C14.3634 40.6174 14.2108 41.5336 14.7102 42.1928C14.951 42.543 16.9291 45.5643 13.114 48.9166C12.4961 49.434 12.4441 50.3447 13.0028 50.9806C13.3316 51.4674 14.0052 51.6128 14.5387 51.4026Z" fill="#7CC9EB"/>
<path d="M10.3021 43.5188C10.7656 44.2607 11.7465 44.4905 12.4883 44.027C13.2301 43.5635 13.46 42.5826 12.9964 41.8408L10.6321 38.013C10.1686 37.2712 9.18774 37.0414 8.4459 37.5049C7.70406 37.9684 7.47423 38.9492 7.93775 39.6911L10.3021 43.5188Z" fill="#7CC9EB"/>
<path d="M7.12478 45.9694C7.74278 46.5819 7.71413 47.5519 7.10164 48.1699C6.48916 48.7879 5.50118 48.8005 4.90114 48.1467L1.72311 44.9478C1.10511 44.3353 1.09244 43.3473 1.74625 42.7473C2.35874 42.1293 3.34672 42.1166 3.94676 42.7704L7.12478 45.9694Z" fill="#7CC9EB"/>
<path d="M7.41743 45.4089C7.95819 46.0861 8.93361 46.2153 9.61078 45.6745C10.2879 45.1338 10.4172 44.1584 9.87641 43.4812L7.08457 39.9589C6.5438 39.2817 5.56838 39.1525 4.89121 39.6932C4.21405 40.234 4.08482 41.2094 4.62558 41.8866L7.41743 45.4089Z" fill="#7CC9EB"/>
</svg>
